<svg width="51" height="51" viewBox="0 0 51 51" fill="none" xmlns="http://www.w3.org/2000/svg">
<path d="M8.204 43.516C7.796 43.708 7.328 43.78 6.8 43.732C6.296 43.708 5.792 43.564 5.288 43.3C4.784 43.06 4.34 42.736 3.956 42.328C3.788 42.136 3.68 41.944 3.632 41.752C3.584 41.584 3.608 41.344 3.704 41.032C3.824 40.6 3.98 40.384 4.172 40.384C4.436 40.384 4.736 40.612 5.072 41.068C5.744 41.668 6.404 41.836 7.052 41.572C7.724 41.308 8.432 40.6 9.176 39.448C9.32 39.088 9.548 38.572 9.86 37.9C10.172 37.228 10.496 36.508 10.832 35.74C11.192 34.972 11.516 34.264 11.804 33.616C12.092 32.944 12.284 32.464 12.38 32.176C12.38 32.176 12.38 32.14 12.38 32.068C12.404 31.972 12.464 31.876 12.56 31.78C12.584 31.684 12.644 31.492 12.74 31.204C12.836 30.916 12.932 30.58 13.028 30.196C13.124 29.932 13.256 29.536 13.424 29.008C13.616 28.48 13.808 27.928 14 27.352C14.216 26.776 14.396 26.296 14.54 25.912C14.66 25.408 14.804 24.868 14.972 24.292C15.164 23.692 15.32 23.236 15.44 22.924C15.536 22.732 15.68 22.348 15.872 21.772C16.064 21.172 16.28 20.524 16.52 19.828C16.808 18.892 17.084 18.028 17.348 17.236C17.612 16.42 17.816 15.76 17.96 15.256C18.128 14.728 18.188 14.428 18.14 14.356C18.14 14.356 17.924 14.392 17.492 14.464C17.084 14.536 16.628 14.62 16.124 14.716C15.716 14.884 15.308 14.944 14.9 14.896C14.516 14.824 14.336 14.74 14.36 14.644C14.36 14.548 14.36 14.5 14.36 14.5C14.36 14.476 14.36 14.464 14.36 14.464C14.288 14.512 14.192 14.5 14.072 14.428C13.952 14.332 13.844 14.212 13.748 14.068C13.652 13.9 13.604 13.756 13.604 13.636C13.604 13.444 13.844 13.276 14.324 13.132C14.804 12.964 15.416 12.832 16.16 12.736C16.64 12.664 17.108 12.604 17.564 12.556C18.044 12.484 18.44 12.424 18.752 12.376C18.848 12.304 19.016 12.304 19.256 12.376C19.52 12.448 19.784 12.544 20.048 12.664C20.336 12.784 20.54 12.916 20.66 13.06C20.804 13.252 20.888 13.456 20.912 13.672C20.96 13.888 20.936 14.188 20.84 14.572C20.744 14.956 20.564 15.508 20.3 16.228C20.06 16.924 19.712 17.884 19.256 19.108C18.728 20.596 18.26 21.952 17.852 23.176C17.444 24.376 17.072 25.372 16.736 26.164C16.664 26.428 16.532 26.812 16.34 27.316C16.172 27.82 16.004 28.336 15.836 28.864C15.668 29.368 15.536 29.788 15.44 30.124C15.248 30.58 15.068 31.072 14.9 31.6C14.732 32.128 14.6 32.548 14.504 32.86C14.504 33.052 14.456 33.268 14.36 33.508C14.264 33.748 14.156 33.928 14.036 34.048C14.036 34.048 13.952 34.264 13.784 34.696C13.616 35.104 13.412 35.596 13.172 36.172C12.98 36.652 12.764 37.18 12.524 37.756C12.308 38.356 12.104 38.812 11.912 39.124C11.792 39.412 11.648 39.676 11.48 39.916C11.312 40.18 11.228 40.36 11.228 40.456C11.228 40.456 11.216 40.492 11.192 40.564C11.192 40.636 11.144 40.672 11.048 40.672C11.048 40.672 11.012 40.696 10.94 40.744C10.868 40.816 10.832 40.912 10.832 41.032C10.784 41.176 10.652 41.368 10.436 41.608C10.244 41.848 10.004 42.1 9.716 42.364C9.452 42.628 9.176 42.856 8.888 43.048C8.624 43.264 8.396 43.42 8.204 43.516ZM26.0839 36.244C25.9159 36.244 25.6519 36.172 25.2919 36.028C24.9559 35.86 24.5959 35.668 24.2119 35.452C23.8279 35.212 23.5159 34.984 23.2759 34.768C22.7479 34.264 22.3039 33.652 21.9439 32.932C21.5839 32.212 21.3319 31.444 21.1879 30.628C21.0439 29.788 21.0319 28.984 21.1519 28.216C21.4159 26.68 21.9919 25.168 22.8799 23.68C23.7679 22.168 24.7879 20.92 25.9399 19.936C26.5639 19.384 27.1279 18.964 27.6319 18.676C28.1359 18.364 28.7479 18.124 29.4679 17.956C29.7319 17.884 30.0199 17.848 30.3319 17.848C30.6439 17.824 30.8839 17.812 31.0519 17.812C31.5319 17.812 32.0119 17.908 32.4919 18.1C32.9719 18.292 33.3799 18.532 33.7159 18.82C34.0519 19.084 34.2199 19.336 34.2199 19.576C34.2199 19.744 34.2079 19.876 34.1839 19.972C34.1599 20.044 34.0519 20.032 33.8599 19.936H33.4999L33.8599 20.98C33.9559 21.172 34.0399 21.436 34.1119 21.772C34.1839 22.084 34.2199 22.372 34.2199 22.636C34.2199 22.852 34.1839 23.2 34.1119 23.68C34.0399 24.136 33.9439 24.628 33.8239 25.156C33.7039 25.684 33.5839 26.176 33.4639 26.632C33.3439 27.088 33.2359 27.424 33.1399 27.64C33.0679 27.784 33.0199 27.928 32.9959 28.072C32.9959 28.192 32.9959 28.3 32.9959 28.396C32.8999 28.564 32.7439 28.888 32.5279 29.368C32.3359 29.848 32.1919 30.184 32.0959 30.376C31.9999 30.472 31.9159 30.556 31.8439 30.628C31.7959 30.7 31.8199 30.784 31.9159 30.88C31.9159 30.928 31.8559 31.084 31.7359 31.348C31.6159 31.588 31.4839 31.816 31.3399 32.032C31.2199 32.248 31.1239 32.356 31.0519 32.356C31.0519 32.356 31.0159 32.368 30.9439 32.392C30.8959 32.392 30.8719 32.428 30.8719 32.5C30.8719 32.596 30.7159 32.848 30.4039 33.256C30.0919 33.64 29.7199 34.048 29.2879 34.48C29.0479 34.72 28.7119 34.984 28.2799 35.272C27.8719 35.536 27.4639 35.764 27.0559 35.956C26.6479 36.148 26.3239 36.244 26.0839 36.244ZM25.9759 33.976C26.2399 33.976 26.4919 33.94 26.7319 33.868C26.9719 33.772 27.1759 33.64 27.3439 33.472C27.7759 33.184 28.2799 32.716 28.8559 32.068C29.4319 31.396 29.8519 30.748 30.1159 30.124C30.3799 29.764 30.5839 29.392 30.7279 29.008C30.8959 28.6 31.1479 27.916 31.4839 26.956C31.6759 26.692 31.8079 26.368 31.8799 25.984C31.9519 25.6 31.9879 25.276 31.9879 25.012C31.9879 24.748 31.9879 24.388 31.9879 23.932C32.0119 23.476 32.0719 23.092 32.1679 22.78C32.1679 22.156 32.1559 21.748 32.1319 21.556C32.1079 21.34 32.0119 21.136 31.8439 20.944C31.7479 20.872 31.6159 20.8 31.4479 20.728C31.3039 20.656 31.1479 20.62 30.9799 20.62C30.8119 20.62 30.4999 20.716 30.0439 20.908C29.5879 21.076 29.2639 21.22 29.0719 21.34C28.9039 21.436 28.7119 21.448 28.4959 21.376C28.3039 21.304 28.2079 21.208 28.2079 21.088C28.2079 20.752 27.9919 20.728 27.5599 21.016C27.1279 21.28 26.6479 21.736 26.1199 22.384C25.6879 22.816 25.3159 23.26 25.0039 23.716C24.7159 24.148 24.5719 24.412 24.5719 24.508C24.5719 24.604 24.5359 24.724 24.4639 24.868C24.3919 25.012 24.3199 25.18 24.2479 25.372C24.1279 25.54 23.9839 25.816 23.8159 26.2C23.6479 26.584 23.4799 26.968 23.3119 27.352C23.1679 27.712 23.0719 27.988 23.0239 28.18C23.0239 28.276 23.0239 28.54 23.0239 28.972C23.0239 29.38 23.0239 29.764 23.0239 30.124C23.0239 30.532 23.0359 30.88 23.0599 31.168C23.1079 31.456 23.1679 31.708 23.2399 31.924C23.3119 32.116 23.4079 32.332 23.5279 32.572C23.6239 32.74 23.7679 32.944 23.9599 33.184C24.1759 33.4 24.3199 33.556 24.3919 33.652C24.6559 33.892 24.8719 34.036 25.0399 34.084C25.2079 34.108 25.5199 34.072 25.9759 33.976ZM38.6549 36.748C38.3909 36.7 38.1149 36.568 37.8269 36.352C37.5629 36.112 37.3229 35.848 37.1069 35.56C36.9149 35.248 36.7829 34.972 36.7109 34.732C36.7109 34.684 36.6749 34.624 36.6029 34.552C36.5549 34.48 36.5309 34.444 36.5309 34.444C36.4349 34.372 36.3749 34.06 36.3509 33.508C36.3509 32.932 36.3869 32.296 36.4589 31.6C36.5309 30.904 36.6149 30.352 36.7109 29.944C36.8309 29.56 37.0109 29.044 37.2509 28.396C37.4909 27.724 37.6949 27.124 37.8629 26.596L38.8349 24.508L37.3949 24.112C37.2269 24.064 37.0829 23.968 36.9629 23.824C36.8669 23.68 36.8189 23.56 36.8189 23.464C36.8189 23.272 36.9269 23.044 37.1429 22.78C37.3589 22.492 37.5149 22.348 37.6109 22.348C37.7309 22.372 37.9469 22.384 38.2589 22.384C38.5949 22.384 38.9189 22.372 39.2309 22.348C39.5429 22.324 39.7349 22.3 39.8069 22.276C39.9029 22.228 39.9989 22.168 40.0949 22.096C40.1909 22 40.2629 21.868 40.3109 21.7C40.4309 21.436 40.5389 21.196 40.6349 20.98C40.7309 20.74 40.8629 20.476 41.0309 20.188C41.1989 19.876 41.3309 19.612 41.4269 19.396C41.5469 19.18 41.7269 18.88 41.9669 18.496C42.0869 18.328 42.2189 18.124 42.3629 17.884C42.5069 17.644 42.6869 17.44 42.9029 17.272C43.1189 17.08 43.3349 16.996 43.5509 17.02C43.7909 17.02 44.0909 17.176 44.4509 17.488C44.6429 17.728 44.7509 17.908 44.7749 18.028C44.7989 18.148 44.7029 18.376 44.4869 18.712C44.2949 19.12 44.0669 19.528 43.8029 19.936C43.5629 20.344 43.3349 20.752 43.1189 21.16C42.7349 21.688 42.6629 21.988 42.9029 22.06C43.1429 22.132 43.8149 22.084 44.9189 21.916C45.6149 21.796 46.1189 21.832 46.4309 22.024C46.7429 22.192 46.9229 22.48 46.9709 22.888C47.0429 23.464 46.9829 23.812 46.7909 23.932C46.5989 24.052 46.0469 24.112 45.1349 24.112C44.5589 24.208 44.0669 24.268 43.6589 24.292C43.2509 24.292 42.9509 24.292 42.7589 24.292C42.4469 24.316 42.2429 24.328 42.1469 24.328C42.0509 24.328 41.9069 24.352 41.7149 24.4C41.5229 24.448 41.3789 24.532 41.2829 24.652C41.2109 24.748 41.1269 24.892 41.0309 25.084C40.9349 25.18 40.7909 25.432 40.5989 25.84C40.4069 26.248 40.1669 26.692 39.8789 27.172C39.5429 28.18 39.2549 29.188 39.0149 30.196C38.7749 31.18 38.5829 32.14 38.4389 33.076C38.3429 33.676 38.3549 34.096 38.4749 34.336C38.5949 34.552 38.9069 34.684 39.4109 34.732C39.6749 34.756 40.0949 34.756 40.6709 34.732C41.2709 34.684 41.7389 34.612 42.0749 34.516C42.3389 34.396 42.6149 34.276 42.9029 34.156C43.1909 34.012 43.4549 33.868 43.6949 33.724C43.9109 33.604 44.1269 33.484 44.3429 33.364C44.5589 33.22 44.6669 33.148 44.6669 33.148C44.7869 32.956 44.9189 32.896 45.0629 32.968C45.2069 33.04 45.3269 33.22 45.4229 33.508C45.4229 33.796 45.3629 34.096 45.2429 34.408C45.1229 34.72 44.6789 35.092 43.9109 35.524C42.8309 36.196 41.8349 36.604 40.9229 36.748C40.0349 36.868 39.2789 36.868 38.6549 36.748Z" fill="white"/>
</svg>
